Patient4_TMGait_0pt5_01_left_28_EMG.mot
version=1
nRows=33
nColumns=33
inDegrees=no
endheader
time	1LAddLong	2LGlutMax	3LGlutMed	4LIliopsoas	5LSemiMemb	6LBicFemLong	7LRecFem	8LVastMed	9LVastLat	10LGasMed	11LTibAnt	12lTibPost	13LPeroneusLong	14LSol	15LExtDigLong	16LFlexDigLong	17RAddLong	18RGlutMax	19RGlutMed	20RIliopsoas	21RSemiMemb	22RBicFemLong	23RRecFem	24RVastMed	25RVastLat	26RGasMed	27RTibAnt	28RTibPost	29RPeroneusLong	30RSol	31RExtDigLong	32RFlexDigLong
38.32	0.001221	-0.017548	-0.54169	0.016785	0.007019	0.056152	0.061798	-0.009766	0.007477	-0.14862	-0.020142	-0.003662	0.085449	-0.27191	0.027924	0.008392	0.005493	0.14053	0.40115	0.045776	0.51117	-0.32455	0.22766	-0.14664	0.159	0.016937	-0.037994	-0.011749	0.67642	0.078278	-0.007172	-0.007629
38.321	0.003815	-0.004883	-0.55008	0.01236	0.018921	0.02182	0.033722	-0.007324	0.010681	0.02655	-0.029755	-0.004578	0.05127	-0.19272	-0.094299	0.000153	-0.003052	0.056915	0.63675	0.021667	0.28183	-0.22583	0.19455	-0.029449	0.24826	0.006561	0.071106	-0.007477	0.83405	0.031433	-0.001831	-0.00412
38.322	-0.032043	0.0177	-0.52399	0.010986	0.015869	0.037994	0.035553	-0.003204	-0.000153	-0.2446	-0.055847	-0.002136	0.13992	-0.032349	-0.10162	-0.00824	-0.004578	0.044556	0.28168	0.059509	-0.11505	-0.11658	0.12711	0.044098	0.3093	0.011749	0.15091	-0.009918	1.01	-0.011597	-0.003967	-0.001526
38.323	0.019836	-0.000916	-0.48248	0.010376	0.00061	0.13031	0.01297	-0.00351	-0.009003	-0.44357	-0.057068	0.00061	0.085449	0.1236	-0.046387	-0.00473	0.053406	0.087128	0.30487	0.028076	0.022736	-0.092316	0.059509	0.052948	0.33829	0.016632	0.17868	-0.003967	0.44891	-0.12451	-0.002747	-0.008698
38.324	0.037689	0.017853	-0.46204	0.009918	-0.042267	0.095215	-0.004883	-0.00061	0.019226	-0.42893	-0.041962	0.022888	-0.12741	0.17212	-0.049438	-0.00061	0.081482	0.103	0.38269	0.016327	0.3186	-0.10346	-0.027008	-0.016785	0.57877	0.010986	0.27741	-0.005035	-0.43732	-0.093231	-0.007477	-0.013275
38.325	0.001984	0.061646	-0.42877	0.013275	-0.067749	0.090485	0.00473	-0.013428	0.023499	-0.22705	-0.050201	0.034637	-0.058594	0.14984	-0.074615	-0.009308	0.079956	0.12375	0.60257	-0.02243	0.77133	-0.21912	0.055542	-0.063934	0.52368	0.005798	0.40268	-0.006409	-0.92361	0.007324	-0.008698	-0.011444
38.326	0.002747	0.052948	-0.38452	0.009766	-0.05661	0.078888	0.015411	-0.007782	0.033569	0.019226	-0.040588	0.045319	0.006409	0.085907	-0.066986	-0.003815	0.075378	0.084991	1.2199	-0.028839	0.69977	-0.24353	0.073242	-0.039215	0.30029	0.001831	0.16785	-0.00473	0.15518	0.091553	-0.002899	-0.010834
38.327	0.017548	0.039063	-0.36774	-0.001984	-0.000153	0.081482	-0.005646	-0.010834	0.045929	-0.005493	-0.007172	0.028229	-0.012207	0.051727	-0.001221	-0.003204	0.004425	0.063477	1.0664	-0.023346	0.52078	-0.018005	0.029449	0.088348	-0.04776	-0.003662	-0.3685	-0.008698	0.5751	0.12009	-0.004425	-0.003357
38.328	0.01236	0.063324	-0.34943	0.002747	0.004272	0.00412	0.014343	-0.011902	0.051727	-0.12085	0.041809	0.011597	0.00824	0.083313	0.19836	-0.016022	-0.084839	0.005646	0.65552	-0.030518	0.27161	0.28748	-0.052032	0.003204	-0.47714	-0.009613	-0.36896	-0.00412	0.63065	-0.006866	-0.002289	-0.005493
38.329	0.005493	0.045319	-0.32547	-0.003357	-0.018005	-0.071716	0.019073	-0.013123	0.070953	0.039825	0.04837	0.002899	0.001526	0.075073	0.026855	-0.000763	-0.11353	0.007629	0.26398	-0.056305	0.039825	0.49606	-0.081787	0.000153	-0.9285	-0.001526	-0.25192	-0.007019	0.43655	-0.081635	-0.002441	-0.000916
38.33	0.005188	0.05722	-0.2739	0.005951	-0.045624	-0.10361	0.01358	-0.016632	0.056763	0.13458	0.011749	-0.005646	-0.023041	0.10025	-0.007477	-0.001221	-0.094757	0.05127	0.12848	-0.016327	0.27908	0.45013	-0.10941	-0.037079	-1.1177	0.00412	-0.40405	-0.005341	0.27481	-0.090942	-0.002136	-0.007172
38.331	0.011444	0.084686	-0.2478	0.005341	-0.02182	-0.20096	0.016937	-0.009308	0.059357	-0.001678	0.003052	-0.003204	0.005493	0.065155	-0.047913	0.001678	-0.03067	0.084991	-0.27329	0	0.42068	0.21011	-0.25482	-0.11429	-0.90576	0.001526	-0.32654	-0.003052	0.22278	-0.064545	-0.002441	0.001526
38.332	0.007477	0.097656	-0.22369	0.018005	0.030518	-0.2536	0.02594	-0.003357	0.037537	-0.19257	0.016327	0.007477	-0.009918	0.021973	0.05722	0.004425	0.009308	-0.000458	-0.046844	0.03006	0.31769	-0.037842	-0.1506	-0.086823	-0.72174	0.003815	-0.2243	0.001984	0.12711	-0.009766	0.00473	-0.003967
38.333	0.005798	0.082092	-0.18524	0.009308	0.017548	-0.23956	0.054016	-0.012207	0.043793	-0.18982	0.072479	0.012512	-0.03479	0.06897	0.24231	0.007629	-0.003052	0.11917	0.22766	0.014801	0.23941	-0.22156	-0.010681	-0.35492	-0.45654	-0.002747	-0.1561	-0.007629	0.14374	-0.009613	-0.00061	0.00351
38.334	0.00061	0.098724	-0.15564	0.007477	0.045624	-0.2359	0.045624	-0.005798	0.037537	-0.2536	0.076294	0.003662	-0.026093	0.088043	0.020294	-0.006256	0.010223	-0.056305	0.30029	-0.00351	0.1442	-0.31662	0.077362	-0.42358	-0.31677	0.004272	-0.019836	-0.010529	0.073547	0.021362	-0.00061	0.005646
38.335	-0.003357	0.095825	-0.10452	0.019379	0.050507	-0.086823	0.025787	0.007019	0.029755	-0.26733	0.04776	0.005341	0.027466	0.084534	-0.055847	-0.011902	-0.002136	-0.16144	0.32577	-0.03479	0.10651	-0.33966	0.077667	-0.24582	-0.15991	-0.004883	0.13733	-0.007782	-0.10468	0.000153	-0.002899	-0.000458
38.336	0.00351	0.036316	-0.057526	0.005188	0.037079	0.11276	0.019531	-0.007172	0.041962	-0.26093	-0.013275	0.009003	0.049286	0.13809	-0.13321	-0.011292	-0.053101	-0.17151	0.066681	-0.014801	0.56702	-0.1683	0.007629	0.22415	0.034943	-0.007324	0.24216	0.002441	-0.20004	-0.059052	-0.00061	-0.001678
38.337	-0.008392	0.0354	-0.014954	0.011292	0.023956	0.16235	0.032196	-0.003967	0.031891	-0.25421	-0.034943	0.024719	0.02121	0.16846	-0.1619	-0.023499	-0.048218	-0.053864	0.082092	-0.000458	0.48889	0.29251	-0.03891	0.73975	0.11688	-0.01358	0.26886	-0.007935	-0.24933	-0.080261	-0.001984	-0.007019
38.338	-0.01358	0.057526	0.022125	0.014343	-0.010376	0.15945	0.036621	-0.003204	0.042419	-0.23926	-0.029297	0.023346	-0.038452	0.070496	-0.12848	-0.002899	0.055695	-0.13138	-0.38559	0.024109	0.37537	0.37964	0.034943	0.64636	0.15106	-0.010223	0.20874	-0.00946	-0.24811	-0.056152	-0.00412	-0.008087
38.339	-0.005646	0.095673	0.062866	0.010376	-0.00473	0.17609	0.016174	-0.007324	0.052643	-0.16357	-0.009003	0.011139	-0.011902	0.003967	-0.103	-0.008087	0.14389	-0.10956	-0.51331	-0.024719	0.46112	0.66803	0.13184	0.41306	0.040588	-0.015564	0.33356	-0.007477	-0.009155	-0.1178	-0.003357	-0.007477
38.34	-0.010986	0.089417	0.088806	-0.002899	-0.021667	0.069275	-0.006561	-0.001831	0.077362	0.036774	0.006104	0.009766	0.008087	-0.038147	-0.048981	-0.018463	0.24811	-0.11902	-0.60043	0.037384	0.57953	0.71564	0.19821	0.097961	-0.086823	0.009155	0.40192	-0.011902	0.2652	-0.16876	-0.007935	-0.001221
38.341	-0.009003	0.1387	0.13596	-0.011597	-0.034637	0.06546	0.001068	-0.009003	0.07782	0.23086	0.016479	-0.000305	-0.018616	-0.061646	0.011139	-0.018921	0.22797	0.088196	-0.12299	0.072937	0.55039	0.47607	0.21652	-0.27023	-0.13031	0.019989	0.21057	-0.009155	0.16281	-0.12009	-0.004272	0.000916
38.342	-0.00824	0.15198	0.16373	-0.021667	-0.056763	0.030518	-0.006866	-0.004272	0.087891	0.65659	0.02594	0.000916	-0.047607	-0.016632	0.042267	-0.011749	0.10849	0.17914	0.58395	0.12344	0.23712	0.46249	0.089417	-0.4277	-0.16953	0.014038	-0.041656	-0.002136	-0.091095	-0.14252	-0.000305	0.002747
38.343	-0.012054	0.13947	0.19836	-0.00824	-0.078735	-0.013733	0.009613	0.00061	0.070343	0.69168	0.011749	0.005188	-0.025635	0.019989	0.045013	-0.014954	-0.029297	-0.067902	0.30609	0.14175	0.017853	0.51529	-0.17181	-0.49332	-0.13214	0.013275	-0.062866	-0.001526	-0.035706	-0.17639	-0.001984	0.007782
38.344	-0.014496	0.11856	0.23636	-0.012512	-0.074921	-0.10025	0.018463	-0.007782	0.063171	0.16953	0.00824	-0.000305	0.007019	0.023193	0.086212	-0.000916	-0.13855	-0.19028	0.23926	0.064392	-0.000763	0.60593	-0.14282	-0.45883	-0.011902	0.018921	-0.27893	-0.005798	-0.30884	-0.18478	-0.006104	0
38.345	-0.002441	0.1358	0.24612	-0.014496	-0.042114	-0.029602	-0.000916	-0.004578	0.079346	-0.36026	-0.005951	-0.003815	0.012054	0.014496	0.10605	-0.015259	-0.16998	-0.31448	-0.078583	-0.089722	0.18051	0.69977	-0.15152	0.012512	0.10788	0.021973	-0.43594	0.000916	-0.15686	-0.15167	-0.001678	0.012054
38.346	-0.003204	0.13886	0.271	-0.004425	0.022888	0.027008	0.028839	-0.006409	0.052795	-0.31418	0.021515	-0.000153	0.029297	0.001831	0.10086	0.001373	-0.11643	-0.3183	-0.32547	-0.14053	0.55801	0.48462	-0.19241	0.39673	0.070343	0.00885	-0.41916	-0.001526	0.3775	0.09201	-0.003662	0.004883
38.347	-0.011292	0.15411	0.29984	0.030212	0.054626	0.061798	0.002747	0.000153	0.037689	-0.24963	0.076752	0.005798	0.016937	0.030518	0.10437	0.002136	-0.04715	-0.23514	-0.23941	-0.067596	0.46081	0.13672	-0.093079	0.38101	0.38147	-0.004272	-0.25314	-0.002136	0.30426	0.25207	-0.003357	-0.000153
38.348	-0.006866	0.13107	0.32166	0.054932	0.036011	0.027313	-0.044098	-0.007324	0.027771	-0.32364	0.21759	0.005341	-0.025024	0.092621	0.24475	-0.002747	-0.016479	-0.19867	-0.38422	0.091858	0.38681	-0.040894	0.000458	0.076752	0.68512	-0.004883	-0.24445	-0.019379	-0.12848	0.068054	-0.005188	-0.000458
38.349	-0.006714	0.093994	0.34424	0.018921	-0.012512	0.023346	-0.058899	-0.007935	0.031738	-0.33585	0.25223	0.013275	-0.092468	0.13092	0.70831	-0.00473	-0.003662	-0.10849	0.35599	0.19791	0.15366	-0.048218	-0.28778	-0.035095	0.42938	-0.004883	-0.27054	-0.020905	0.75592	-0.10422	-0.000916	0.001984
38.35	-0.01236	0.11871	0.35324	0.01297	-0.014954	0.037079	-0.063782	-0.008392	0.012054	-0.31982	0.14267	0.027466	-0.10132	0.17624	-0.18692	-0.011749	0.016937	-0.027008	0.14465	0.24338	0.079651	-0.079956	-0.34958	0.019073	-0.023041	-0.004883	-0.2182	-0.011749	0.57404	-0.004883	-0.00412	0.001984
38.351	-0.002747	0.099792	0.36529	0.000305	-0.014191	-0.030823	-0.089874	-0.010376	0.007324	-0.32883	-0.094299	0.020294	-0.042419	0.20447	-0.45212	0.002441	0.04715	-0.021057	-0.2623	0.066681	0.30624	-0.1857	-0.19104	-0.083313	0.41153	0.001221	-0.26032	-0.007019	-0.081024	0.071259	0.000153	0.002747
38.352	-0.002594	0.12314	0.38315	0.00412	-0.014496	-0.031433	-0.094147	-0.015717	-0.001678	-0.3183	-0.20966	0.008698	-0.019836	0.20569	-0.33432	-0.02121	0.030365	-0.039368	0.18753	-0.098724	0.40619	-0.10346	-0.17654	-0.074921	0.47134	0.001678	-0.25681	-0.011902	-0.53757	0.11276	-0.00412	0.007629
